<?xml version="1.0" encoding="UTF-8" standalone="no"?>
<!DOCTYPE svg PUBLIC "-//W3C//DTD SVG 1.1//EN"
 "http://www.w3.org/Graphics/SVG/1.1/DTD/svg11.dtd">
<!-- Generated by graphviz version 2.43.0 (0)
 -->
<!-- Title: mule Pages: 1 -->
<svg width="3452pt" height="2399pt"
 viewBox="0.00 0.00 1656.99 1151.60" xmlns="http://www.w3.org/2000/svg" xmlns:xlink="http://www.w3.org/1999/xlink">
<g id="graph0" class="graph" transform="scale(0.48 0.48) rotate(0) translate(72 1115.6)">
<title>mule</title>
<polygon fill="white" stroke="transparent" points="-72,36 -72,-1115.6 1584.99,-1115.6 1584.99,36 -72,36"/>
<text text-anchor="start" x="653" y="-1064.4" font-family="Times,serif" font-size="14.00">Mule Flows &#45; Graph Diagram</text>
<text text-anchor="start" x="509.5" y="-1049.4" font-family="Times,serif" font-size="14.00">Generated on : ven, 27 ott 2023 03:18 PM by muleflow&#45;maven&#45;plugin</text>
<g id="clust1" class="cluster">
<title>cluster_legend</title>
<polygon fill="none" stroke="black" stroke-dasharray="5,2" points="42.31,-8 42.31,-227 788.31,-227 788.31,-8 42.31,-8"/>
<text text-anchor="start" x="386.31" y="-212.8" font-family="Times,serif" font-weight="bold" font-size="14.00">Legend</text>
</g>
<g id="clust3" class="cluster">
<title>cluster_mule</title>
</g>
<g id="clust2" class="cluster">
<title>cluster_legend&#45;space</title>
</g>
<!-- flow -->
<g id="node1" class="node">
<title>flow</title>
<polygon fill="none" stroke="blue" points="166.31,-196 94.31,-196 94.31,-178 166.31,-178 166.31,-196"/>
<text text-anchor="middle" x="130.31" y="-183.3" font-family="Times,serif" font-size="14.00">flow</text>
</g>
<!-- sub&#45;flow -->
<g id="node2" class="node">
<title>sub&#45;flow</title>
<ellipse fill="none" stroke="black" cx="397.12" cy="-187" rx="36" ry="9"/>
<text text-anchor="middle" x="397.12" y="-183.3" font-family="Times,serif" font-size="14.00">sub&#45;flow</text>
</g>
<!-- flow&#45;&gt;sub&#45;flow -->
<!-- Unused sub/&#45;flow -->
<g id="node4" class="node">
<title>Unused sub/&#45;flow</title>
<ellipse fill="gray" stroke="gray" cx="708.31" cy="-187" rx="72" ry="9"/>
<text text-anchor="middle" x="708.31" y="-183.3" font-family="Times,serif" font-size="14.00">Unused sub/&#45;flow</text>
</g>
<!-- sub&#45;flow&#45;&gt;Unused sub/&#45;flow -->
<!-- connector:operation -->
<g id="node3" class="node">
<title>connector:operation</title>
<polygon fill="none" stroke="black" points="210.31,-160 50.31,-160 50.31,-156 46.31,-156 46.31,-152 50.31,-152 50.31,-132 46.31,-132 46.31,-128 50.31,-128 50.31,-124 210.31,-124 210.31,-160"/>
<polyline fill="none" stroke="black" points="50.31,-156 54.31,-156 54.31,-152 50.31,-152 "/>
<polyline fill="none" stroke="black" points="50.31,-132 54.31,-132 54.31,-128 50.31,-128 "/>
<text text-anchor="middle" x="130.31" y="-138.3" font-family="Times,serif" font-size="14.00">connector:operation</text>
</g>
<!-- Flow A -->
<g id="node5" class="node">
<title>Flow A</title>
<ellipse fill="none" stroke="black" cx="130.31" cy="-97" rx="36" ry="9"/>
<text text-anchor="middle" x="130.31" y="-93.3" font-family="Times,serif" font-size="14.00">Flow A</text>
</g>
<!-- sub&#45;flow&#45;1 -->
<g id="node6" class="node">
<title>sub&#45;flow&#45;1</title>
<ellipse fill="none" stroke="black" cx="397.12" cy="-115" rx="45" ry="9"/>
<text text-anchor="middle" x="397.12" y="-111.3" font-family="Times,serif" font-size="14.00">sub&#45;flow&#45;1</text>
</g>
<!-- Flow A&#45;&gt;sub&#45;flow&#45;1 -->
<g id="edge3" class="edge">
<title>Flow A&#45;&gt;sub&#45;flow&#45;1</title>
<path fill="none" stroke="black" d="M165.12,-99.3C210.35,-102.37 290.98,-107.85 344.01,-111.46"/>
<polygon fill="black" stroke="black" points="354.23,-112.15 343.95,-115.96 349.24,-111.81 344.25,-111.47 344.25,-111.47 344.25,-111.47 349.24,-111.81 344.56,-106.98 354.23,-112.15 354.23,-112.15"/>
<text text-anchor="middle" x="272.62" y="-110.8" font-family="Times,serif" font-size="14.00">(1)</text>
<text text-anchor="middle" x="245.1" y="-94.05" font-family="Times,serif" font-size="14.00">Call Sequence</text>
</g>
<!-- Flow C -->
<g id="node7" class="node">
<title>Flow C</title>
<ellipse fill="none" stroke="black" cx="130.31" cy="-61" rx="36" ry="9"/>
<text text-anchor="middle" x="130.31" y="-57.3" font-family="Times,serif" font-size="14.00">Flow C</text>
</g>
<!-- sub&#45;flow&#45;C1 -->
<g id="node8" class="node">
<title>sub&#45;flow&#45;C1</title>
<ellipse fill="none" stroke="black" cx="397.12" cy="-79" rx="45" ry="9"/>
<text text-anchor="middle" x="397.12" y="-75.3" font-family="Times,serif" font-size="14.00">sub&#45;flow&#45;C1</text>
</g>
<!-- Flow C&#45;&gt;sub&#45;flow&#45;C1 -->
<g id="edge4" class="edge">
<title>Flow C&#45;&gt;sub&#45;flow&#45;C1</title>
<path fill="none" stroke="#9ac0cd" stroke-width="2" stroke-dasharray="5,2" d="M165.12,-63.3C210.35,-66.37 290.98,-71.85 344.01,-75.46"/>
<polygon fill="#9ac0cd" stroke="#9ac0cd" stroke-width="2" points="354.23,-76.15 343.95,-79.96 349.21,-76.31 344.22,-75.97 344.25,-75.47 344.29,-74.98 349.28,-75.31 344.56,-70.98 354.23,-76.15 354.23,-76.15"/>
<text text-anchor="middle" x="226.14" y="-73.52" font-family="Times,serif" font-size="14.00">(1) Async</text>
<text text-anchor="middle" x="245.1" y="-58.05" font-family="Times,serif" font-size="14.00">Asynchronous call</text>
</g>
<!-- flow source -->
<g id="node9" class="node">
<title>flow source</title>
<polygon fill="cyan" stroke="cyan" points="184.31,-25 157.31,-34 103.31,-34 76.31,-25 103.31,-16 157.31,-16 184.31,-25"/>
<text text-anchor="middle" x="130.31" y="-21.3" font-family="Times,serif" font-size="14.00">flow source</text>
</g>
<!-- flow self&#45;call -->
<g id="node10" class="node">
<title>flow self&#45;call</title>
<polygon fill="none" stroke="blue" points="442.12,-34 352.12,-34 352.12,-16 442.12,-16 442.12,-34"/>
<text text-anchor="middle" x="397.12" y="-21.3" font-family="Times,serif" font-size="14.00">flow self&#45;call</text>
</g>
<!-- flow source&#45;&gt;flow self&#45;call -->
<!-- flow self&#45;call&#45;&gt;flow self&#45;call -->
<g id="edge6" class="edge">
<title>flow self&#45;call&#45;&gt;flow self&#45;call</title>
<path fill="none" stroke="black" d="M378.32,-34.13C368.57,-42.7 374.84,-52 397.12,-52 411.39,-52 419.09,-48.18 420.22,-43.19"/>
<polygon fill="black" stroke="black" points="415.92,-34.13 424.28,-41.23 418.06,-38.64 420.21,-43.16 420.21,-43.16 420.21,-43.16 418.06,-38.64 416.15,-45.09 415.92,-34.13 415.92,-34.13"/>
</g>
<!-- sub&#45;flow self&#45;call -->
<g id="node11" class="node">
<title>sub&#45;flow self&#45;call</title>
<ellipse fill="none" stroke="black" cx="708.31" cy="-25" rx="72" ry="9"/>
<text text-anchor="middle" x="708.31" y="-21.3" font-family="Times,serif" font-size="14.00">sub&#45;flow self&#45;call</text>
</g>
<!-- flow self&#45;call&#45;&gt;sub&#45;flow self&#45;call -->
<!-- sub&#45;flow self&#45;call&#45;&gt;sub&#45;flow self&#45;call -->
<g id="edge8" class="edge">
<title>sub&#45;flow self&#45;call&#45;&gt;sub&#45;flow self&#45;call</title>
<path fill="none" stroke="black" d="M681.35,-33.43C664.99,-42.19 673.98,-52 708.31,-52 734.05,-52 745.54,-46.48 742.78,-40.03"/>
<polygon fill="black" stroke="black" points="735.26,-33.43 745.74,-36.64 739.02,-36.73 742.78,-40.03 742.78,-40.03 742.78,-40.03 739.02,-36.73 739.81,-43.41 735.26,-33.43 735.26,-33.43"/>
</g>
<g id="node12" class="node">
<title></title>
</g>
<!-- guccidemo&#45;main -->
<g id="node13" class="node">
<title>guccidemo&#45;main</title>
<polygon fill="none" stroke="blue" points="484.12,-700 310.12,-700 310.12,-664 484.12,-664 484.12,-700"/>
<text text-anchor="start" x="318.12" y="-679.3" font-family="Times,serif" font-weight="bold" font-size="14.00">flow</text>
<text text-anchor="start" x="350.12" y="-679.3" font-family="Times,serif" font-size="14.00">: guccidemo&#45;main</text>
</g>
<!-- apikit -->
<g id="node14" class="node">
<title>apikit</title>
<ellipse fill="cyan" stroke="cyan" cx="708.31" cy="-628" rx="154.87" ry="154.87"/>
<ellipse fill="none" stroke="cyan" cx="708.31" cy="-628" rx="158.87" ry="158.87"/>
<text text-anchor="start" x="597.31" y="-624.3" font-family="Times,serif" font-size="14.00">ApiKitNode (gucciDemoConfig)</text>
</g>
<!-- guccidemo&#45;main&#45;&gt;apikit -->
<g id="edge9" class="edge">
<title>guccidemo&#45;main&#45;&gt;apikit</title>
<path fill="none" stroke="black" d="M484.24,-666.96C502.28,-663.81 521.88,-660.39 541.72,-656.92"/>
<polygon fill="black" stroke="black" points="551.79,-655.16 542.71,-661.32 546.86,-656.02 541.93,-656.88 541.93,-656.88 541.93,-656.88 546.86,-656.02 541.16,-652.45 551.79,-655.16 551.79,-655.16"/>
<text text-anchor="middle" x="521.62" y="-664.8" font-family="Times,serif" font-size="14.00">(1)</text>
</g>
<!-- get:\shipping:gucciDemoConfig -->
<g id="node15" class="node">
<title>get:\shipping:gucciDemoConfig</title>
<polygon fill="none" stroke="blue" points="1257.99,-733 977.99,-733 977.99,-697 1257.99,-697 1257.99,-733"/>
<text text-anchor="start" x="985.99" y="-712.3" font-family="Times,serif" font-weight="bold" font-size="14.00">flow</text>
<text text-anchor="start" x="1017.99" y="-712.3" font-family="Times,serif" font-size="14.00">: get:\shipping:gucciDemoConfig</text>
</g>
<!-- apikit&#45;&gt;get:\shipping:gucciDemoConfig -->
<g id="edge10" class="edge">
<title>apikit&#45;&gt;get:\shipping:gucciDemoConfig</title>
<path fill="none" stroke="black" d="M860.43,-673.17C881.34,-678.61 902.62,-683.74 922.99,-688 937.46,-691.02 952.61,-693.8 967.8,-696.32"/>
<polygon fill="black" stroke="black" points="977.77,-697.95 967.18,-700.78 972.84,-697.14 967.9,-696.34 967.9,-696.34 967.9,-696.34 972.84,-697.14 968.63,-691.9 977.77,-697.95 977.77,-697.95"/>
<text text-anchor="middle" x="894.99" y="-685.8" font-family="Times,serif" font-size="14.00">(1)</text>
</g>
<!-- get:\shipping\(country):gucciDemoConfig -->
<g id="node16" class="node">
<title>get:\shipping\(country):gucciDemoConfig</title>
<polygon fill="none" stroke="blue" points="1292.99,-816 942.99,-816 942.99,-780 1292.99,-780 1292.99,-816"/>
<text text-anchor="start" x="950.99" y="-795.3" font-family="Times,serif" font-weight="bold" font-size="14.00">flow</text>
<text text-anchor="start" x="982.99" y="-795.3" font-family="Times,serif" font-size="14.00">: get:\shipping\(country):gucciDemoConfig</text>
</g>
<!-- apikit&#45;&gt;get:\shipping\(country):gucciDemoConfig -->
<g id="edge11" class="edge">
<title>apikit&#45;&gt;get:\shipping\(country):gucciDemoConfig</title>
<path fill="none" stroke="black" d="M846.37,-706.52C871.43,-719.31 897.67,-731.72 922.99,-742 957.43,-755.98 996.63,-767.98 1030.73,-777.25"/>
<polygon fill="black" stroke="black" points="1040.66,-779.92 1029.84,-781.68 1035.84,-778.62 1031.01,-777.33 1031.01,-777.33 1031.01,-777.33 1035.84,-778.62 1032.17,-772.98 1040.66,-779.92 1040.66,-779.92"/>
<text text-anchor="middle" x="894.99" y="-737.8" font-family="Times,serif" font-size="14.00">(2)</text>
</g>
<!-- post:\orders:application\json:gucciDemoConfig -->
<g id="node19" class="node">
<title>post:\orders:application\json:gucciDemoConfig</title>
<polygon fill="none" stroke="blue" points="1312.99,-679 922.99,-679 922.99,-643 1312.99,-643 1312.99,-679"/>
<text text-anchor="start" x="930.99" y="-658.3" font-family="Times,serif" font-weight="bold" font-size="14.00">flow</text>
<text text-anchor="start" x="962.99" y="-658.3" font-family="Times,serif" font-size="14.00">: post:\orders:application\json:gucciDemoConfig</text>
</g>
<!-- apikit&#45;&gt;post:\orders:application\json:gucciDemoConfig -->
<g id="edge12" class="edge">
<title>apikit&#45;&gt;post:\orders:application\json:gucciDemoConfig</title>
<path fill="none" stroke="black" d="M866.64,-640.74C881.72,-641.96 897.16,-643.21 912.6,-644.46"/>
<polygon fill="black" stroke="black" points="922.74,-645.28 912.41,-648.96 917.76,-644.87 912.78,-644.47 912.78,-644.47 912.78,-644.47 917.76,-644.87 913.14,-639.98 922.74,-645.28 922.74,-645.28"/>
<text text-anchor="middle" x="894.99" y="-646.8" font-family="Times,serif" font-size="14.00">(3)</text>
</g>
<!-- list&#45;objects -->
<g id="node17" class="node">
<title>list&#45;objects</title>
<polygon fill="none" stroke="black" points="1480.49,-874 1385.49,-874 1385.49,-870 1381.49,-870 1381.49,-866 1385.49,-866 1385.49,-846 1381.49,-846 1381.49,-842 1385.49,-842 1385.49,-838 1480.49,-838 1480.49,-874"/>
<polyline fill="none" stroke="black" points="1385.49,-870 1389.49,-870 1389.49,-866 1385.49,-866 "/>
<polyline fill="none" stroke="black" points="1385.49,-846 1389.49,-846 1389.49,-842 1385.49,-842 "/>
<text text-anchor="middle" x="1432.99" y="-852.3" font-family="Times,serif" font-size="14.00">list&#45;objects</text>
</g>
<!-- get:\shipping\(country):gucciDemoConfig&#45;&gt;list&#45;objects -->
<g id="edge13" class="edge">
<title>get:\shipping\(country):gucciDemoConfig&#45;&gt;list&#45;objects</title>
<path fill="none" stroke="black" d="M1220.69,-816.05C1261.26,-823.34 1308.36,-831.93 1350.99,-840 1358.9,-841.5 1367.24,-843.11 1375.44,-844.71"/>
<polygon fill="black" stroke="black" points="1385.33,-846.65 1374.65,-849.14 1380.42,-845.69 1375.52,-844.72 1375.52,-844.72 1375.52,-844.72 1380.42,-845.69 1376.38,-840.31 1385.33,-846.65 1385.33,-846.65"/>
<text text-anchor="middle" x="1340.99" y="-843.8" font-family="Times,serif" font-size="14.00">(1)</text>
</g>
<!-- get&#45;object -->
<g id="node18" class="node">
<title>get&#45;object</title>
<polygon fill="none" stroke="black" points="1476.99,-816 1388.99,-816 1388.99,-812 1384.99,-812 1384.99,-808 1388.99,-808 1388.99,-788 1384.99,-788 1384.99,-784 1388.99,-784 1388.99,-780 1476.99,-780 1476.99,-816"/>
<polyline fill="none" stroke="black" points="1388.99,-812 1392.99,-812 1392.99,-808 1388.99,-808 "/>
<polyline fill="none" stroke="black" points="1388.99,-788 1392.99,-788 1392.99,-784 1388.99,-784 "/>
<text text-anchor="middle" x="1432.99" y="-794.3" font-family="Times,serif" font-size="14.00">get&#45;object</text>
</g>
<!-- get:\shipping\(country):gucciDemoConfig&#45;&gt;get&#45;object -->
<g id="edge14" class="edge">
<title>get:\shipping\(country):gucciDemoConfig&#45;&gt;get&#45;object</title>
<path fill="none" stroke="black" d="M1293.34,-798C1324.27,-798 1354.27,-798 1378.4,-798"/>
<polygon fill="black" stroke="black" points="1388.71,-798 1378.71,-802.5 1383.71,-798 1378.71,-798 1378.71,-798 1378.71,-798 1383.71,-798 1378.71,-793.5 1388.71,-798 1388.71,-798"/>
<text text-anchor="middle" x="1340.99" y="-801.8" font-family="Times,serif" font-size="14.00">(2)</text>
</g>
<!-- put&#45;object -->
<g id="node20" class="node">
<title>put&#45;object</title>
<polygon fill="none" stroke="black" points="1477.49,-707 1388.49,-707 1388.49,-703 1384.49,-703 1384.49,-699 1388.49,-699 1388.49,-679 1384.49,-679 1384.49,-675 1388.49,-675 1388.49,-671 1477.49,-671 1477.49,-707"/>
<polyline fill="none" stroke="black" points="1388.49,-703 1392.49,-703 1392.49,-699 1388.49,-699 "/>
<polyline fill="none" stroke="black" points="1388.49,-679 1392.49,-679 1392.49,-675 1388.49,-675 "/>
<text text-anchor="middle" x="1432.99" y="-685.3" font-family="Times,serif" font-size="14.00">put&#45;object</text>
</g>
<!-- post:\orders:application\json:gucciDemoConfig&#45;&gt;put&#45;object -->
<g id="edge15" class="edge">
<title>post:\orders:application\json:gucciDemoConfig&#45;&gt;put&#45;object</title>
<path fill="none" stroke="black" d="M1313.21,-678.37C1336.89,-680.49 1359.33,-682.5 1378.21,-684.19"/>
<polygon fill="black" stroke="black" points="1388.31,-685.09 1377.95,-688.68 1383.33,-684.65 1378.35,-684.2 1378.35,-684.2 1378.35,-684.2 1383.33,-684.65 1378.75,-679.72 1388.31,-685.09 1388.31,-685.09"/>
<text text-anchor="middle" x="1340.99" y="-684.8" font-family="Times,serif" font-size="14.00">(1)</text>
</g>
<!-- send&#45;message -->
<g id="node21" class="node">
<title>send&#45;message</title>
<polygon fill="none" stroke="black" points="1491.49,-647 1374.49,-647 1374.49,-643 1370.49,-643 1370.49,-639 1374.49,-639 1374.49,-619 1370.49,-619 1370.49,-615 1374.49,-615 1374.49,-611 1491.49,-611 1491.49,-647"/>
<polyline fill="none" stroke="black" points="1374.49,-643 1378.49,-643 1378.49,-639 1374.49,-639 "/>
<polyline fill="none" stroke="black" points="1374.49,-619 1378.49,-619 1378.49,-615 1374.49,-615 "/>
<text text-anchor="middle" x="1432.99" y="-625.3" font-family="Times,serif" font-size="14.00">send&#45;message</text>
</g>
<!-- post:\orders:application\json:gucciDemoConfig&#45;&gt;send&#45;message -->
<g id="edge16" class="edge">
<title>post:\orders:application\json:gucciDemoConfig&#45;&gt;send&#45;message</title>
<path fill="none" stroke="black" d="M1313.03,-643.01C1325.88,-641.69 1338.62,-640.35 1350.99,-639 1355.39,-638.52 1359.92,-638.01 1364.48,-637.48"/>
<polygon fill="black" stroke="black" points="1374.49,-636.3 1365.09,-641.94 1369.52,-636.89 1364.56,-637.47 1364.56,-637.47 1364.56,-637.47 1369.52,-636.89 1364.03,-633 1374.49,-636.3 1374.49,-636.3"/>
<text text-anchor="middle" x="1340.99" y="-644.8" font-family="Times,serif" font-size="14.00">(2)</text>
</g>
<!-- publish -->
<g id="node22" class="node">
<title>publish</title>
<polygon fill="none" stroke="black" points="1467.49,-761 1398.49,-761 1398.49,-757 1394.49,-757 1394.49,-753 1398.49,-753 1398.49,-733 1394.49,-733 1394.49,-729 1398.49,-729 1398.49,-725 1467.49,-725 1467.49,-761"/>
<polyline fill="none" stroke="black" points="1398.49,-757 1402.49,-757 1402.49,-753 1398.49,-753 "/>
<polyline fill="none" stroke="black" points="1398.49,-733 1402.49,-733 1402.49,-729 1398.49,-729 "/>
<text text-anchor="middle" x="1432.99" y="-739.3" font-family="Times,serif" font-size="14.00">publish</text>
</g>
<!-- post:\orders:application\json:gucciDemoConfig&#45;&gt;publish -->
<g id="edge17" class="edge">
<title>post:\orders:application\json:gucciDemoConfig&#45;&gt;publish</title>
<path fill="none" stroke="black" d="M1285.36,-679.05C1294.82,-681.65 1304.09,-684.62 1312.99,-688 1321.98,-691.42 1322.53,-695.43 1330.99,-700 1349.33,-709.9 1370.43,-719.19 1388.58,-726.58"/>
<polygon fill="black" stroke="black" points="1398.05,-730.38 1387.1,-730.84 1393.41,-728.52 1388.77,-726.66 1388.77,-726.66 1388.77,-726.66 1393.41,-728.52 1390.44,-722.48 1398.05,-730.38 1398.05,-730.38"/>
<text text-anchor="middle" x="1340.99" y="-712.8" font-family="Times,serif" font-size="14.00">(3)</text>
</g>
<!-- listener -->
<g id="node23" class="node">
<title>listener</title>
<polygon fill="cyan" stroke="cyan" points="225.87,-682 178.09,-711.29 82.53,-711.29 34.75,-682 82.53,-652.71 178.09,-652.71 225.87,-682"/>
<text text-anchor="start" x="79.81" y="-685.8" font-family="Times,serif" font-weight="bold" font-size="14.00">http:listener</text>
<text text-anchor="start" x="111.31" y="-671.8" font-family="Times,serif" font-size="14.00">/api/*</text>
</g>
<!-- listener&#45;&gt;guccidemo&#45;main -->
<g id="edge20" class="edge">
<title>listener&#45;&gt;guccidemo&#45;main</title>
<path fill="none" stroke="black" d="M226.16,-682C250.06,-682 275.73,-682 299.7,-682"/>
<polygon fill="black" stroke="black" points="309.86,-682 299.86,-686.5 304.86,-682 299.86,-682 299.86,-682 299.86,-682 304.86,-682 299.86,-677.5 309.86,-682 309.86,-682"/>
<text text-anchor="middle" x="272.62" y="-685.8" font-family="Times,serif" font-size="14.00">(1)</text>
</g>
<!-- guccidemo&#45;console -->
<g id="node27" class="node">
<title>guccidemo&#45;console</title>
<polygon fill="none" stroke="blue" points="493.12,-646 301.12,-646 301.12,-610 493.12,-610 493.12,-646"/>
<text text-anchor="start" x="309.12" y="-625.3" font-family="Times,serif" font-weight="bold" font-size="14.00">flow</text>
<text text-anchor="start" x="341.12" y="-625.3" font-family="Times,serif" font-size="14.00">: guccidemo&#45;console</text>
</g>
<!-- listener&#45;&gt;guccidemo&#45;console -->
<g id="edge19" class="edge">
<title>listener&#45;&gt;guccidemo&#45;console</title>
<path fill="none" stroke="black" d="M202.27,-667.53C231.44,-661.58 265.72,-654.59 297.28,-648.16"/>
<polygon fill="black" stroke="black" points="307.42,-646.09 298.52,-652.49 302.52,-647.09 297.62,-648.09 297.62,-648.09 297.62,-648.09 302.52,-647.09 296.72,-643.68 307.42,-646.09 307.42,-646.09"/>
<text text-anchor="middle" x="272.62" y="-658.8" font-family="Times,serif" font-size="14.00">(1)</text>
</g>
<!-- check&#45;environment -->
<g id="node28" class="node">
<title>check&#45;environment</title>
<polygon fill="none" stroke="blue" points="493.62,-878 300.62,-878 300.62,-842 493.62,-842 493.62,-878"/>
<text text-anchor="start" x="308.62" y="-857.3" font-family="Times,serif" font-weight="bold" font-size="14.00">flow</text>
<text text-anchor="start" x="340.62" y="-857.3" font-family="Times,serif" font-size="14.00">: check&#45;environment</text>
</g>
<!-- listener&#45;&gt;check&#45;environment -->
<g id="edge18" class="edge">
<title>listener&#45;&gt;check&#45;environment</title>
<path fill="none" stroke="black" d="M175.04,-711.39C227.04,-746.35 312.8,-804 360.8,-836.26"/>
<polygon fill="black" stroke="black" points="369.3,-841.97 358.49,-840.13 365.15,-839.18 361,-836.39 361,-836.39 361,-836.39 365.15,-839.18 363.51,-832.66 369.3,-841.97 369.3,-841.97"/>
<text text-anchor="middle" x="272.62" y="-784.8" font-family="Times,serif" font-size="14.00">(1)</text>
</g>
<!-- gucci&#45;demo&#45;flow -->
<g id="node24" class="node">
<title>gucci&#45;demo&#45;flow</title>
<polygon fill="none" stroke="blue" points="483.12,-451 311.12,-451 311.12,-415 483.12,-415 483.12,-451"/>
<text text-anchor="start" x="319.12" y="-430.3" font-family="Times,serif" font-weight="bold" font-size="14.00">flow</text>
<text text-anchor="start" x="351.12" y="-430.3" font-family="Times,serif" font-size="14.00">: gucci&#45;demo&#45;flow</text>
</g>
<!-- create&#45;bucket -->
<g id="node25" class="node">
<title>create&#45;bucket</title>
<polygon fill="none" stroke="black" points="765.31,-451 651.31,-451 651.31,-447 647.31,-447 647.31,-443 651.31,-443 651.31,-423 647.31,-423 647.31,-419 651.31,-419 651.31,-415 765.31,-415 765.31,-451"/>
<polyline fill="none" stroke="black" points="651.31,-447 655.31,-447 655.31,-443 651.31,-443 "/>
<polyline fill="none" stroke="black" points="651.31,-423 655.31,-423 655.31,-419 651.31,-419 "/>
<text text-anchor="middle" x="708.31" y="-429.3" font-family="Times,serif" font-size="14.00">create&#45;bucket</text>
</g>
<!-- gucci&#45;demo&#45;flow&#45;&gt;create&#45;bucket -->
<g id="edge21" class="edge">
<title>gucci&#45;demo&#45;flow&#45;&gt;create&#45;bucket</title>
<path fill="none" stroke="black" d="M483.42,-433C533.11,-433 594.84,-433 640.89,-433"/>
<polygon fill="black" stroke="black" points="651.05,-433 641.05,-437.5 646.05,-433 641.05,-433 641.05,-433 641.05,-433 646.05,-433 641.05,-428.5 651.05,-433 651.05,-433"/>
<text text-anchor="middle" x="521.62" y="-436.8" font-family="Times,serif" font-size="14.00">(1)</text>
</g>
<!-- scheduler -->
<g id="node26" class="node">
<title>scheduler</title>
<polygon fill="cyan" stroke="cyan" points="244.43,-433 187.37,-462.29 73.25,-462.29 16.19,-433 73.25,-403.71 187.37,-403.71 244.43,-433"/>
<text text-anchor="start" x="68.31" y="-436.8" font-family="Times,serif" font-weight="bold" font-size="14.00">mule:scheduler</text>
</g>
<!-- scheduler&#45;&gt;gucci&#45;demo&#45;flow -->
<g id="edge22" class="edge">
<title>scheduler&#45;&gt;gucci&#45;demo&#45;flow</title>
<path fill="none" stroke="black" d="M244.76,-433C263.48,-433 282.71,-433 300.92,-433"/>
<polygon fill="black" stroke="black" points="310.92,-433 300.92,-437.5 305.92,-433 300.92,-433 300.92,-433 300.92,-433 305.92,-433 300.92,-428.5 310.92,-433 310.92,-433"/>
<text text-anchor="middle" x="272.62" y="-436.8" font-family="Times,serif" font-size="14.00">(1)</text>
</g>
<!-- guccidemo&#45;console&#45;&gt;apikit -->
<g id="edge23" class="edge">
<title>guccidemo&#45;console&#45;&gt;apikit</title>
<path fill="none" stroke="black" d="M493.41,-628C508.04,-628 523.5,-628 539.15,-628"/>
<polygon fill="black" stroke="black" points="549.45,-628 539.45,-632.5 544.45,-628 539.45,-628 539.45,-628 539.45,-628 544.45,-628 539.45,-623.5 549.45,-628 549.45,-628"/>
<text text-anchor="middle" x="521.62" y="-631.8" font-family="Times,serif" font-size="14.00">(1)</text>
</g>
<!-- check&#45;environment&#45;&gt;list&#45;objects -->
<g id="edge27" class="edge">
<title>check&#45;environment&#45;&gt;list&#45;objects</title>
<path fill="none" stroke="black" d="M493.99,-859.63C705.44,-858.81 1206.44,-856.87 1375.3,-856.22"/>
<polygon fill="black" stroke="black" points="1385.47,-856.18 1375.48,-860.72 1380.47,-856.2 1375.47,-856.22 1375.47,-856.22 1375.47,-856.22 1380.47,-856.2 1375.45,-851.72 1385.47,-856.18 1385.47,-856.18"/>
<text text-anchor="middle" x="894.99" y="-861.8" font-family="Times,serif" font-size="14.00">(4)</text>
</g>
<!-- list&#45;queues -->
<g id="node29" class="node">
<title>list&#45;queues</title>
<polygon fill="none" stroke="black" points="755.81,-915 660.81,-915 660.81,-911 656.81,-911 656.81,-907 660.81,-907 660.81,-887 656.81,-887 656.81,-883 660.81,-883 660.81,-879 755.81,-879 755.81,-915"/>
<polyline fill="none" stroke="black" points="660.81,-911 664.81,-911 664.81,-907 660.81,-907 "/>
<polyline fill="none" stroke="black" points="660.81,-887 664.81,-887 664.81,-883 660.81,-883 "/>
<text text-anchor="middle" x="708.31" y="-893.3" font-family="Times,serif" font-size="14.00">list&#45;queues</text>
</g>
<!-- check&#45;environment&#45;&gt;list&#45;queues -->
<g id="edge24" class="edge">
<title>check&#45;environment&#45;&gt;list&#45;queues</title>
<path fill="none" stroke="black" d="M493.83,-871.45C545.22,-877.6 606.82,-884.98 650.61,-890.22"/>
<polygon fill="black" stroke="black" points="660.78,-891.43 650.32,-894.71 655.82,-890.84 650.86,-890.24 650.86,-890.24 650.86,-890.24 655.82,-890.84 651.39,-885.78 660.78,-891.43 660.78,-891.43"/>
<text text-anchor="middle" x="521.62" y="-878.8" font-family="Times,serif" font-size="14.00">(1)</text>
</g>
<!-- get&#45;approximate&#45;number&#45;of&#45;messages -->
<g id="node30" class="node">
<title>get&#45;approximate&#45;number&#45;of&#45;messages</title>
<polygon fill="none" stroke="black" points="851.31,-969 565.31,-969 565.31,-965 561.31,-965 561.31,-961 565.31,-961 565.31,-941 561.31,-941 561.31,-937 565.31,-937 565.31,-933 851.31,-933 851.31,-969"/>
<polyline fill="none" stroke="black" points="565.31,-965 569.31,-965 569.31,-961 565.31,-961 "/>
<polyline fill="none" stroke="black" points="565.31,-941 569.31,-941 569.31,-937 565.31,-937 "/>
<text text-anchor="middle" x="708.31" y="-947.3" font-family="Times,serif" font-size="14.00">get&#45;approximate&#45;number&#45;of&#45;messages</text>
</g>
<!-- check&#45;environment&#45;&gt;get&#45;approximate&#45;number&#45;of&#45;messages -->
<g id="edge25" class="edge">
<title>check&#45;environment&#45;&gt;get&#45;approximate&#45;number&#45;of&#45;messages</title>
<path fill="none" stroke="black" d="M434.3,-878.08C464.46,-892.46 508.92,-912.09 549.62,-924 557.95,-926.44 566.59,-928.68 575.35,-930.74"/>
<polygon fill="black" stroke="black" points="585.28,-932.99 574.53,-935.17 580.4,-931.89 575.52,-930.78 575.52,-930.78 575.52,-930.78 580.4,-931.89 576.52,-926.39 585.28,-932.99 585.28,-932.99"/>
<text text-anchor="middle" x="521.62" y="-920.8" font-family="Times,serif" font-size="14.00">(2)</text>
</g>
<!-- list&#45;topics -->
<g id="node31" class="node">
<title>list&#45;topics</title>
<polygon fill="none" stroke="black" points="751.31,-841 665.31,-841 665.31,-837 661.31,-837 661.31,-833 665.31,-833 665.31,-813 661.31,-813 661.31,-809 665.31,-809 665.31,-805 751.31,-805 751.31,-841"/>
<polyline fill="none" stroke="black" points="665.31,-837 669.31,-837 669.31,-833 665.31,-833 "/>
<polyline fill="none" stroke="black" points="665.31,-813 669.31,-813 669.31,-809 665.31,-809 "/>
<text text-anchor="middle" x="708.31" y="-819.3" font-family="Times,serif" font-size="14.00">list&#45;topics</text>
</g>
<!-- check&#45;environment&#45;&gt;list&#45;topics -->
<g id="edge26" class="edge">
<title>check&#45;environment&#45;&gt;list&#45;topics</title>
<path fill="none" stroke="black" d="M493.7,-842.54C499.76,-841.63 505.77,-840.77 511.62,-840 560.04,-833.64 615.52,-829.08 655.01,-826.29"/>
<polygon fill="black" stroke="black" points="665.2,-825.59 655.53,-830.77 660.21,-825.93 655.22,-826.28 655.22,-826.28 655.22,-826.28 660.21,-825.93 654.91,-821.79 665.2,-825.59 665.2,-825.59"/>
<text text-anchor="middle" x="521.62" y="-843.8" font-family="Times,serif" font-size="14.00">(3)</text>
</g>
<!-- receive&#45;marketing&#45;messages -->
<g id="node32" class="node">
<title>receive&#45;marketing&#45;messages</title>
<polygon fill="none" stroke="blue" points="1248.99,-603 986.99,-603 986.99,-567 1248.99,-567 1248.99,-603"/>
<text text-anchor="start" x="994.99" y="-582.3" font-family="Times,serif" font-weight="bold" font-size="14.00">flow</text>
<text text-anchor="start" x="1026.99" y="-582.3" font-family="Times,serif" font-size="14.00">: receive&#45;marketing&#45;messages</text>
</g>
<!-- receive&#45;marketing&#45;messages&#45;&gt;send&#45;message -->
<g id="edge28" class="edge">
<title>receive&#45;marketing&#45;messages&#45;&gt;send&#45;message</title>
<path fill="none" stroke="black" d="M1247.2,-603.02C1287.29,-608.66 1329.94,-614.65 1364.15,-619.46"/>
<polygon fill="black" stroke="black" points="1374.48,-620.92 1363.95,-623.98 1369.53,-620.22 1364.58,-619.52 1364.58,-619.52 1364.58,-619.52 1369.53,-620.22 1365.21,-615.07 1374.48,-620.92 1374.48,-620.92"/>
<text text-anchor="middle" x="1340.99" y="-620.8" font-family="Times,serif" font-size="14.00">(1)</text>
</g>
<!-- delete&#45;message -->
<g id="node33" class="node">
<title>delete&#45;message</title>
<polygon fill="none" stroke="black" points="1496.99,-527 1368.99,-527 1368.99,-523 1364.99,-523 1364.99,-519 1368.99,-519 1368.99,-499 1364.99,-499 1364.99,-495 1368.99,-495 1368.99,-491 1496.99,-491 1496.99,-527"/>
<polyline fill="none" stroke="black" points="1368.99,-523 1372.99,-523 1372.99,-519 1368.99,-519 "/>
<polyline fill="none" stroke="black" points="1368.99,-499 1372.99,-499 1372.99,-495 1368.99,-495 "/>
<text text-anchor="middle" x="1432.99" y="-505.3" font-family="Times,serif" font-size="14.00">delete&#45;message</text>
</g>
<!-- receive&#45;marketing&#45;messages&#45;&gt;delete&#45;message -->
<g id="edge29" class="edge">
<title>receive&#45;marketing&#45;messages&#45;&gt;delete&#45;message</title>
<path fill="none" stroke="black" d="M1249.17,-568.38C1282.73,-562.51 1318.53,-554.85 1350.99,-545 1362.96,-541.37 1375.49,-536.42 1387.02,-531.35"/>
<polygon fill="black" stroke="black" points="1396.43,-527.09 1389.18,-535.31 1391.88,-529.15 1387.32,-531.21 1387.32,-531.21 1387.32,-531.21 1391.88,-529.15 1385.47,-527.11 1396.43,-527.09 1396.43,-527.09"/>
<text text-anchor="middle" x="1340.99" y="-553.8" font-family="Times,serif" font-size="14.00">(2)</text>
</g>
<!-- receivemessages -->
<g id="node34" class="node">
<title>receivemessages</title>
<polygon fill="cyan" stroke="cyan" points="863.57,-368 785.94,-397.29 630.67,-397.29 553.04,-368 630.67,-338.71 785.94,-338.71 863.57,-368"/>
<text text-anchor="start" x="625.81" y="-371.8" font-family="Times,serif" font-weight="bold" font-size="14.00">sqs:receivemessages</text>
<text text-anchor="start" x="621.31" y="-357.8" font-family="Times,serif" font-size="14.00">${queue.marketing.url}</text>
</g>
<!-- receivemessages&#45;&gt;receive&#45;marketing&#45;messages -->
<g id="edge33" class="edge">
<title>receivemessages&#45;&gt;receive&#45;marketing&#45;messages</title>
<path fill="none" stroke="black" d="M825.27,-382.47C840.43,-388.07 854.88,-395.68 866.99,-406 882.77,-419.43 876.84,-429.95 884.99,-449 901.58,-487.8 890.81,-508.71 922.99,-536 938.7,-549.32 957.55,-559.1 977.22,-566.26"/>
<polygon fill="black" stroke="black" points="986.94,-569.57 976.03,-570.61 982.21,-567.96 977.48,-566.35 977.48,-566.35 977.48,-566.35 982.21,-567.96 978.93,-562.09 986.94,-569.57 986.94,-569.57"/>
<text text-anchor="middle" x="894.99" y="-517.8" font-family="Times,serif" font-size="14.00">(1)</text>
</g>
<!-- receive&#45;order&#45;messages -->
<g id="node35" class="node">
<title>receive&#45;order&#45;messages</title>
<polygon fill="none" stroke="blue" points="1231.49,-379 1004.49,-379 1004.49,-343 1231.49,-343 1231.49,-379"/>
<text text-anchor="start" x="1012.49" y="-358.3" font-family="Times,serif" font-weight="bold" font-size="14.00">flow</text>
<text text-anchor="start" x="1044.49" y="-358.3" font-family="Times,serif" font-size="14.00">: receive&#45;order&#45;messages</text>
</g>
<!-- receivemessages&#45;&gt;receive&#45;order&#45;messages -->
<g id="edge32" class="edge">
<title>receivemessages&#45;&gt;receive&#45;order&#45;messages</title>
<path fill="none" stroke="black" d="M857.07,-365.46C902,-364.69 950.88,-363.85 994,-363.11"/>
<polygon fill="black" stroke="black" points="1004.25,-362.94 994.33,-367.61 999.25,-363.02 994.25,-363.11 994.25,-363.11 994.25,-363.11 999.25,-363.02 994.18,-358.61 1004.25,-362.94 1004.25,-362.94"/>
<text text-anchor="middle" x="894.99" y="-367.8" font-family="Times,serif" font-size="14.00">(1)</text>
</g>
<!-- receive&#45;accounting&#45;messages -->
<g id="node37" class="node">
<title>receive&#45;accounting&#45;messages</title>
<polygon fill="none" stroke="blue" points="1250.99,-527 984.99,-527 984.99,-491 1250.99,-491 1250.99,-527"/>
<text text-anchor="start" x="992.99" y="-506.3" font-family="Times,serif" font-weight="bold" font-size="14.00">flow</text>
<text text-anchor="start" x="1024.99" y="-506.3" font-family="Times,serif" font-size="14.00">: receive&#45;accounting&#45;messages</text>
</g>
<!-- receivemessages&#45;&gt;receive&#45;accounting&#45;messages -->
<g id="edge31" class="edge">
<title>receivemessages&#45;&gt;receive&#45;accounting&#45;messages</title>
<path fill="none" stroke="black" d="M812.29,-387.54C830.86,-392.54 849.77,-398.64 866.99,-406 894.2,-417.63 896.37,-429.08 922.99,-442 961.24,-460.57 1005.99,-476.39 1042.86,-487.98"/>
<polygon fill="black" stroke="black" points="1052.55,-490.99 1041.67,-492.32 1047.77,-489.5 1043,-488.02 1043,-488.02 1043,-488.02 1047.77,-489.5 1044.33,-483.72 1052.55,-490.99 1052.55,-490.99"/>
<text text-anchor="middle" x="894.99" y="-433.8" font-family="Times,serif" font-size="14.00">(1)</text>
</g>
<!-- receive&#45;shipping&#45;messages -->
<g id="node38" class="node">
<title>receive&#45;shipping&#45;messages</title>
<polygon fill="none" stroke="blue" points="1242.99,-433 992.99,-433 992.99,-397 1242.99,-397 1242.99,-433"/>
<text text-anchor="start" x="1000.99" y="-412.3" font-family="Times,serif" font-weight="bold" font-size="14.00">flow</text>
<text text-anchor="start" x="1032.99" y="-412.3" font-family="Times,serif" font-size="14.00">: receive&#45;shipping&#45;messages</text>
</g>
<!-- receivemessages&#45;&gt;receive&#45;shipping&#45;messages -->
<g id="edge30" class="edge">
<title>receivemessages&#45;&gt;receive&#45;shipping&#45;messages</title>
<path fill="none" stroke="black" d="M827.5,-381.63C876.11,-387.23 932.65,-393.75 982.81,-399.53"/>
<polygon fill="black" stroke="black" points="992.75,-400.68 982.3,-404 987.78,-400.1 982.81,-399.53 982.81,-399.53 982.81,-399.53 987.78,-400.1 983.33,-395.06 992.75,-400.68 992.75,-400.68"/>
<text text-anchor="middle" x="894.99" y="-393.8" font-family="Times,serif" font-size="14.00">(1)</text>
</g>
<!-- receive&#45;order&#45;messages&#45;&gt;delete&#45;message -->
<g id="edge34" class="edge">
<title>receive&#45;order&#45;messages&#45;&gt;delete&#45;message</title>
<path fill="none" stroke="black" d="M1231.53,-362.03C1259.54,-366.12 1288.53,-373.91 1312.99,-388 1324.24,-394.48 1322.31,-401.35 1330.99,-411 1354.46,-437.1 1383.39,-464.77 1404.26,-484.02"/>
<polygon fill="black" stroke="black" points="1411.84,-490.97 1401.43,-487.53 1408.16,-487.59 1404.47,-484.21 1404.47,-484.21 1404.47,-484.21 1408.16,-487.59 1407.51,-480.9 1411.84,-490.97 1411.84,-490.97"/>
<text text-anchor="middle" x="1340.99" y="-433.8" font-family="Times,serif" font-size="14.00">(1)</text>
</g>
<!-- request -->
<g id="node36" class="node">
<title>request</title>
<polygon fill="none" stroke="black" points="1468.49,-413 1397.49,-413 1397.49,-409 1393.49,-409 1393.49,-405 1397.49,-405 1397.49,-385 1393.49,-385 1393.49,-381 1397.49,-381 1397.49,-377 1468.49,-377 1468.49,-413"/>
<polyline fill="none" stroke="black" points="1397.49,-409 1401.49,-409 1401.49,-405 1397.49,-405 "/>
<polyline fill="none" stroke="black" points="1397.49,-385 1401.49,-385 1401.49,-381 1397.49,-381 "/>
<text text-anchor="middle" x="1432.99" y="-391.3" font-family="Times,serif" font-size="14.00">request</text>
</g>
<!-- receive&#45;order&#45;messages&#45;&gt;request -->
<g id="edge35" class="edge">
<title>receive&#45;order&#45;messages&#45;&gt;request</title>
<path fill="none" stroke="black" d="M1231.49,-364.51C1269.58,-366.7 1312.27,-370.25 1350.99,-376 1362.82,-377.76 1375.46,-380.36 1387.16,-383.09"/>
<polygon fill="black" stroke="black" points="1397.15,-385.49 1386.38,-387.53 1392.29,-384.32 1387.43,-383.15 1387.43,-383.15 1387.43,-383.15 1392.29,-384.32 1388.48,-378.78 1397.15,-385.49 1397.15,-385.49"/>
<text text-anchor="middle" x="1340.99" y="-379.8" font-family="Times,serif" font-size="14.00">(2)</text>
</g>
<!-- receive&#45;accounting&#45;messages&#45;&gt;delete&#45;message -->
<g id="edge36" class="edge">
<title>receive&#45;accounting&#45;messages&#45;&gt;delete&#45;message</title>
<path fill="none" stroke="black" d="M1250.99,-525.71C1283.7,-527.76 1318.65,-528.16 1350.99,-525 1353.55,-524.75 1356.15,-524.46 1358.77,-524.13"/>
<polygon fill="black" stroke="black" points="1368.94,-522.69 1359.66,-528.54 1363.99,-523.39 1359.03,-524.09 1359.03,-524.09 1359.03,-524.09 1363.99,-523.39 1358.4,-519.63 1368.94,-522.69 1368.94,-522.69"/>
<text text-anchor="middle" x="1340.99" y="-529.8" font-family="Times,serif" font-size="14.00">(1)</text>
</g>
<!-- receive&#45;accounting&#45;messages&#45;&gt;request -->
<g id="edge37" class="edge">
<title>receive&#45;accounting&#45;messages&#45;&gt;request</title>
<path fill="none" stroke="black" d="M1251.15,-513.5C1285.12,-510.17 1320.63,-502.49 1350.99,-487 1379.36,-472.53 1402.23,-443.55 1416.35,-421.96"/>
<polygon fill="black" stroke="black" points="1421.85,-413.22 1420.33,-424.08 1419.19,-417.45 1416.52,-421.68 1416.52,-421.68 1416.52,-421.68 1419.19,-417.45 1412.72,-419.29 1421.85,-413.22 1421.85,-413.22"/>
<text text-anchor="middle" x="1340.99" y="-497.8" font-family="Times,serif" font-size="14.00">(2)</text>
</g>
<!-- receive&#45;shipping&#45;messages&#45;&gt;delete&#45;message -->
<g id="edge38" class="edge">
<title>receive&#45;shipping&#45;messages&#45;&gt;delete&#45;message</title>
<path fill="none" stroke="black" d="M1209.09,-433C1252.54,-442.73 1305.06,-456.03 1350.99,-472 1362.97,-476.17 1375.6,-481.47 1387.22,-486.74"/>
<polygon fill="black" stroke="black" points="1396.3,-490.94 1385.33,-490.82 1391.76,-488.84 1387.22,-486.74 1387.22,-486.74 1387.22,-486.74 1391.76,-488.84 1389.11,-482.66 1396.3,-490.94 1396.3,-490.94"/>
<text text-anchor="middle" x="1340.99" y="-475.8" font-family="Times,serif" font-size="14.00">(1)</text>
</g>
<!-- receive&#45;shipping&#45;messages&#45;&gt;request -->
<g id="edge39" class="edge">
<title>receive&#45;shipping&#45;messages&#45;&gt;request</title>
<path fill="none" stroke="black" d="M1243.03,-402.22C1271.87,-399.71 1302.48,-397.42 1330.99,-396 1349.27,-395.09 1369.42,-394.76 1386.89,-394.68"/>
<polygon fill="black" stroke="black" points="1397.38,-394.66 1387.39,-399.18 1392.38,-394.67 1387.38,-394.68 1387.38,-394.68 1387.38,-394.68 1392.38,-394.67 1387.37,-390.18 1397.38,-394.66 1397.38,-394.66"/>
<text text-anchor="middle" x="1340.99" y="-399.8" font-family="Times,serif" font-size="14.00">(2)</text>
</g>
</g>
</svg>
